<?xml version="1.0" encoding="utf-8"?>
<!-- Generator: Adobe Illustrator 22.0.1, SVG Export Plug-In . SVG Version: 6.00 Build 0)  -->
<svg version="1.1" id="Layer_1" xmlns="http://www.w3.org/2000/svg" xmlns:xlink="http://www.w3.org/1999/xlink" x="0px" y="0px"
	 viewBox="0 0 76.6 58.5" style="enable-background:new 0 0 76.6 58.5;" xml:space="preserve">
<style type="text/css">
	.st0{fill:#62ACDF;}
	.st1{fill:#1256A1;}
</style>
<g>
	<g>
		<path class="st0" d="M17,11.4C13.1,8.3,7.8,7.7,3.2,9.7c-1.2,0.5-2.3,1.2-3.2,2C2.1,5,8.7,0,16.5,0l60.1,0L39.5,28.7L17,11.4z"/>
		<path class="st1" d="M6.3,15.8c2.1-0.9,4.4-0.7,6.2,0.7l4.8,3.8l19.9,15.4c1.3,1,3.2,1,4.5,0l28.8-22.3L76.2,9v36.6
			c0,7.1-6.1,12.8-13.6,12.8H16.5C9,58.5,2.9,52.7,2.9,45.6v-2.3V20.8C2.9,18.6,4.2,16.7,6.3,15.8z"/>
	</g>
</g>
</svg>
