<svg viewBox="0 0 20 20" xmlns="http://www.w3.org/2000/svg"><g><path d="M10.002 13.806l-8.393-4.7a.407.407 0 00-.402.006.421.421 0 00-.207.351v7.721C1 18.187 1.799 19 2.784 19h14.432c.473 0 .927-.191 1.261-.532.335-.34.523-.802.523-1.284V9.408a.421.421 0 00-.208-.353.407.407 0 00-.405-.002l-8.385 4.753z"/><path d="M10.035 12l7.752-4.263a.404.404 0 00.071-.664c-1.804-1.545-4.937-4.167-6.61-5.618a1.888 1.888 0 00-2.434-.021c-1.75 1.464-4.84 4.145-6.671 5.694a.404.404 0 00.07.664L10.035 12z"/></g></svg>
