<svg width="60" height="60" viewBox="0 0 60 60" fill="none" xmlns="http://www.w3.org/2000/svg">
<circle cx="30" cy="30" r="30" fill="white"/>
<path fill-rule="evenodd" clip-rule="evenodd" d="M30.505 35.1287L14.184 26.2017C14.0635 26.137 13.9285 26.1039 13.7917 26.1057C13.6549 26.1074 13.5208 26.1439 13.402 26.2117C13.2836 26.2793 13.1845 26.3761 13.1141 26.4928C13.0437 26.6096 13.0045 26.7425 13 26.8787V41.5487C13.0026 42.4662 13.3696 43.3451 14.0201 43.992C14.6707 44.639 15.5515 45.0011 16.469 44.9987H44.53C45.4489 44.9991 46.3308 44.6361 46.983 43.9887C47.305 43.6692 47.5607 43.2891 47.7352 42.8703C47.9098 42.4515 47.9998 42.0024 48 41.5487V26.7757C47.9959 26.6385 47.9565 26.5046 47.8856 26.3871C47.8146 26.2695 47.7145 26.1723 47.595 26.1047C47.4752 26.0368 47.3399 26.0006 47.2022 25.9998C47.0644 25.9989 46.9287 26.0333 46.808 26.0997L30.505 35.1297V35.1287Z" fill="#000391"/>
<path fill-rule="evenodd" clip-rule="evenodd" d="M30.066 31.9988L44.6 23.8598C44.7091 23.7988 44.8019 23.7125 44.8707 23.6082C44.9395 23.5039 44.9822 23.3846 44.9952 23.2603C45.0083 23.136 44.9913 23.0104 44.9456 22.8941C44.9 22.7777 44.8271 22.6741 44.733 22.5918C41.35 19.6438 35.477 14.6388 32.339 11.8678C31.7097 11.3154 30.9028 11.0075 30.0654 11.0001C29.2281 10.9928 28.4159 11.2865 27.777 11.8278C24.497 14.6218 18.7 19.7388 15.267 22.6968C15.1729 22.7791 15.1 22.8827 15.0544 22.9991C15.0088 23.1154 14.9917 23.241 15.0048 23.3653C15.0178 23.4895 15.0605 23.6089 15.1293 23.7132C15.1981 23.8175 15.2909 23.9038 15.4 23.9648L30.066 31.9988Z" fill="#009BFF"/>
</svg>
