<svg width="60" height="60" viewBox="0 0 60 60" fill="none" xmlns="http://www.w3.org/2000/svg">
<path d="M58 30C58 45.464 45.464 58 30 58C14.536 58 2 45.464 2 30C2 14.536 14.536 2 30 2C45.464 2 58 14.536 58 30Z" stroke="#4659C5" stroke-width="4"/>
<path d="M56 30C56 44.3594 44.3594 56 30 56C15.6406 56 4 44.3594 4 30C4 15.6406 15.6406 4 30 4C44.3594 4 56 15.6406 56 30Z" fill="white"/>
<path d="M56 30C56 44.3594 44.3594 56 30 56C15.6406 56 4 44.3594 4 30C4 15.6406 15.6406 4 30 4C44.3594 4 56 15.6406 56 30Z" fill="white"/>
<path fill-rule="evenodd" clip-rule="evenodd" d="M30.4377 34.4449L16.2928 26.7082C16.1884 26.6521 16.0714 26.6234 15.9528 26.625C15.8343 26.6265 15.718 26.6581 15.6151 26.7169C15.5124 26.7754 15.4265 26.8593 15.3656 26.9605C15.3046 27.0617 15.2705 27.1768 15.2667 27.2949V40.0089C15.269 40.8041 15.587 41.5658 16.1508 42.1265C16.7146 42.6872 17.478 43.001 18.2731 42.9989H42.5927C43.3891 42.9993 44.1533 42.6846 44.7186 42.1236C44.9977 41.8467 45.2193 41.5172 45.3705 41.1543C45.5218 40.7914 45.5998 40.4021 45.6 40.0089V27.2057C45.5965 27.0867 45.5623 26.9707 45.5008 26.8688C45.4393 26.767 45.3526 26.6827 45.249 26.6241C45.1451 26.5653 45.0279 26.5339 44.9085 26.5332C44.7891 26.5324 44.6715 26.5622 44.5669 26.6198L30.4377 34.4458V34.4449Z" fill="#000391"/>
<path fill-rule="evenodd" clip-rule="evenodd" d="M30.0572 31.7323L42.6533 24.6785C42.7479 24.6256 42.8283 24.5509 42.8879 24.4604C42.9475 24.37 42.9845 24.2666 42.9958 24.1589C43.0071 24.0512 42.9924 23.9423 42.9528 23.8415C42.9133 23.7407 42.8501 23.6508 42.7686 23.5795C39.8366 21.0246 34.7467 16.6869 32.0271 14.2854C31.4817 13.8067 30.7824 13.5398 30.0567 13.5334C29.331 13.5271 28.6271 13.7816 28.0734 14.2507C25.2307 16.6722 20.2066 21.1069 17.2314 23.6705C17.1499 23.7418 17.0867 23.8317 17.0471 23.9325C17.0076 24.0333 16.9928 24.1422 17.0041 24.2499C17.0154 24.3576 17.0524 24.461 17.112 24.5514C17.1716 24.6419 17.2521 24.7166 17.3466 24.7695L30.0572 31.7323Z" fill="#009BFF"/>
</svg>
